<?xml version="1.0" encoding="UTF-8" standalone="no"?>
<!-- Created with Inkscape (http://www.inkscape.org/) -->

<svg
   xmlns:dc="http://purl.org/dc/elements/1.1/"
   xmlns:cc="http://creativecommons.org/ns#"
   xmlns:rdf="http://www.w3.org/1999/02/22-rdf-syntax-ns#"
   xmlns:svg="http://www.w3.org/2000/svg"
   xmlns="http://www.w3.org/2000/svg"
   xmlns:sodipodi="http://sodipodi.sourceforge.net/DTD/sodipodi-0.dtd"
   xmlns:inkscape="http://www.inkscape.org/namespaces/inkscape"
   width="512"
   height="512"
   viewBox="0 0 135.46666 135.46667"
   version="1.1"
   id="svg1089"
   inkscape:version="0.92.2 (5c3e80d, 2017-08-06)"
   sodipodi:docname="logo.svg">
  <defs
     id="defs1083" />
  <sodipodi:namedview
     id="base"
     pagecolor="#ffffff"
     bordercolor="#666666"
     borderopacity="1.0"
     inkscape:pageopacity="0.0"
     inkscape:pageshadow="2"
     inkscape:zoom="0.35"
     inkscape:cx="-100"
     inkscape:cy="560"
     inkscape:document-units="mm"
     inkscape:current-layer="layer1"
     showgrid="false"
     units="px"
     inkscape:window-width="1366"
     inkscape:window-height="705"
     inkscape:window-x="-8"
     inkscape:window-y="-8"
     inkscape:window-maximized="1" />
  <metadata
     id="metadata1086">
    <rdf:RDF>
      <cc:Work
         rdf:about="">
        <dc:format>image/svg+xml</dc:format>
        <dc:type
           rdf:resource="http://purl.org/dc/dcmitype/StillImage" />
        <dc:title></dc:title>
      </cc:Work>
    </rdf:RDF>
  </metadata>
  <g
     inkscape:label="Capa 1"
     inkscape:groupmode="layer"
     id="layer1"
     transform="translate(0,-161.53332)">
    <g
       id="g1064"
       transform="matrix(1.3326112,0,0,1.3326112,180.48393,-47.593378)">
      <path
         style="fill:#fcf000;stroke-width:0.11511037"
         d="m -106.51339,254.06927 c -3.22703,-0.83427 -5.6217,-3.09106 -6.60141,-6.22133 -0.32039,-1.02367 -0.44569,-3.2903 -0.2401,-4.34301 0.18117,-0.92762 0.61741,-2.17923 0.96952,-2.78164 1.02863,-1.75985 2.39513,-5.50099 2.99766,-8.20687 0.56081,-2.51852 0.7551,-4.36957 0.75634,-7.20587 10e-4,-2.75759 -0.10977,-3.97207 -0.57543,-6.29776 -1.0302,-5.14513 -3.03607,-9.62411 -6.15794,-13.75023 -2.69722,-3.56486 -5.72652,-6.22231 -9.98945,-8.76322 -1.77439,-1.05762 -2.24709,-1.40068 -3.07512,-2.23172 -1.15723,-1.16143 -1.72352,-2.08313 -2.19463,-3.57198 -1.01694,-3.21382 -0.25716,-6.60641 2.03367,-9.08071 1.75723,-1.89797 4.06343,-2.88916 6.72225,-2.88916 1.68032,0 2.71812,0.27408 4.76308,1.25787 2.89131,1.39097 4.47431,1.98887 6.86306,2.5922 5.38121,1.35912 10.291974,1.42769 15.539905,0.21698 3.488943,-0.8049 6.649373,-2.05855 9.554162,-3.78984 5.102783,-3.04132 8.878136,-6.90229 11.947696,-12.21867 1.812098,-3.13849 3.47486,-4.57644 6.182187,-5.34633 1.270257,-0.36123 3.48963,-0.3636 4.834635,-0.005 2.67106,0.71182 5.01229,2.79637 6.050124,5.38682 0.492247,1.22866 0.683836,2.20032 0.683836,3.46819 0,1.61285 -0.315173,2.74688 -1.399162,5.03434 -1.0259,2.16488 -0.992405,2.08652 -1.552688,3.63222 -0.656405,1.81087 -1.213255,3.97288 -1.556524,6.0433 -0.292292,1.76294 -0.418743,6.65697 -0.218602,8.46061 0.680334,6.13115 2.662381,11.31328 6.236696,16.30608 2.630512,3.67445 6.733441,7.23885 11.009108,9.56413 4.350216,2.36581 6.164998,7.07939 4.464776,11.59647 -0.815716,2.16717 -2.675245,4.11436 -4.845834,5.0743 -1.035715,0.45804 -2.471527,0.75421 -3.65917,0.75478 -1.796953,8.7e-4 -2.681379,-0.25488 -5.543288,-1.60295 -3.145561,-1.48168 -5.622086,-2.27485 -8.921055,-2.85719 -2.063742,-0.3643 -6.472734,-0.5058 -8.704393,-0.27937 -6.063249,0.61522 -11.805574,2.8829 -16.82563,6.64457 -1.332198,0.99825 -4.272367,3.80796 -5.399557,5.15997 -1.289192,1.54632 -2.542183,3.43384 -4.115476,6.19961 -0.46624,0.81963 -1.840913,2.21818 -2.79592,2.84449 -2.119086,1.38974 -4.799266,1.83639 -7.237326,1.20609 z m 18.200031,-35.91828 c 3.06029,-1.41918 7.709268,-2.94089 11.050598,-3.61711 1.064834,-0.2155 3.844167,-0.70105 4.012872,-0.70105 0.208778,0 -0.167003,-1.19396 -0.630337,-2.00275 -0.222674,-0.3887 -1.146034,-2.62476 -1.620974,-3.92544 -1.063764,-2.91323 -1.985144,-6.46608 -2.507594,-9.66927 -0.249865,-1.53195 -0.358487,-1.89932 -0.56157,-1.89932 -0.105103,0 -0.915781,0.32981 -1.801508,0.7329 -2.854839,1.29923 -5.45964,2.26 -7.653711,2.82303 -0.47483,0.12185 -1.459024,0.38001 -2.187097,0.5737 -0.728073,0.19369 -2.126664,0.48643 -3.10798,0.65055 -0.981316,0.16411 -1.95254,0.35111 -2.158276,0.41555 -0.330596,0.10355 -0.365467,0.15292 -0.300086,0.42481 0.04069,0.1692 0.190425,0.54084 0.332749,0.82585 0.617313,1.23621 2.039835,4.83182 2.618518,6.61864 0.70356,2.17241 1.506395,5.39257 1.851069,7.42462 0.155712,0.918 0.338203,1.81147 0.405537,1.98549 l 0.122426,0.31639 0.607241,-0.27477 c 0.333982,-0.15112 1.021638,-0.46694 1.528123,-0.70182 z"
         id="path1016"
         inkscape:connector-curvature="0" />
      <path
         style="fill:#ee9a19;stroke-width:0.11511037"
         d="m -106.51339,254.06927 c -3.22703,-0.83427 -5.6217,-3.09106 -6.60141,-6.22133 -0.32039,-1.02367 -0.44569,-3.2903 -0.2401,-4.34301 0.18117,-0.92762 0.61741,-2.17923 0.96952,-2.78164 1.02863,-1.75985 2.39513,-5.50099 2.99766,-8.20687 0.56081,-2.51852 0.7551,-4.36957 0.75634,-7.20587 10e-4,-2.75759 -0.10977,-3.97207 -0.57543,-6.29776 -1.0302,-5.14513 -3.03607,-9.62411 -6.15794,-13.75023 -2.69722,-3.56486 -5.72652,-6.22231 -9.98945,-8.76322 -1.77439,-1.05762 -2.24709,-1.40068 -3.07512,-2.23172 -1.15723,-1.16143 -1.72352,-2.08313 -2.19463,-3.57198 -1.01694,-3.21382 -0.25716,-6.60641 2.03367,-9.08071 1.75723,-1.89797 4.06343,-2.88916 6.72225,-2.88916 1.68032,0 2.71812,0.27408 4.76308,1.25787 2.89131,1.39097 4.47431,1.98887 6.86306,2.5922 5.38121,1.35912 10.291974,1.42769 15.539905,0.21698 2.629453,-0.60662 4.917098,-1.40771 7.191455,-2.51832 5.727457,-2.79681 10.539722,-7.17932 13.736068,-12.50937 0.292515,-0.48778 0.55008,-0.86863 0.572369,-0.84634 0.02228,0.0223 -0.144458,0.40785 -0.370548,0.8568 -0.622805,1.23672 -1.516807,3.3572 -2.09236,4.96283 -0.283679,0.79139 -0.562867,1.56838 -0.620422,1.72666 -0.350608,0.96417 -1.094131,3.84574 -1.431792,5.54899 -0.743187,3.74887 -0.984429,6.24972 -0.984429,10.20521 0,2.70635 0.182909,5.75085 0.356677,5.93685 0.113878,0.12189 0.619504,-0.12347 2.348417,-1.13959 6.071946,-3.56861 11.218244,-8.22848 15.387011,-13.93262 0.971139,-1.32881 2.201318,-3.15082 2.564752,-3.79864 0.52037,-0.92755 0.897635,-1.55399 0.935877,-1.55399 0.0248,0 -0.08922,0.29785 -0.253407,0.66189 -0.528671,1.17218 -0.641065,1.44854 -1.041605,2.5612 -0.657807,1.82731 -1.212477,3.98463 -1.553797,6.0433 -0.292292,1.76294 -0.418743,6.65697 -0.218602,8.46061 0.680334,6.13115 2.662381,11.31329 6.236696,16.30609 2.630512,3.67444 6.733441,7.23884 11.009108,9.56412 4.350216,2.36582 6.164998,7.0794 4.464776,11.59647 -0.815716,2.16717 -2.675245,4.11437 -4.845834,5.07431 -1.035715,0.45804 -2.471527,0.75421 -3.65917,0.75478 -1.796953,8.7e-4 -2.681379,-0.25489 -5.543288,-1.60295 -3.145561,-1.48168 -5.622086,-2.27485 -8.921055,-2.8572 -2.063742,-0.3643 -6.472734,-0.5058 -8.704393,-0.27936 -6.063249,0.61521 -11.805574,2.8829 -16.82563,6.64456 -1.332198,0.99825 -4.272367,3.80796 -5.399557,5.15997 -1.289192,1.54632 -2.542183,3.43384 -4.115476,6.19961 -0.46624,0.81963 -1.840913,2.21818 -2.79592,2.8445 -2.119086,1.38974 -4.799266,1.83639 -7.237326,1.20608 z m 18.200031,-35.91828 c 3.06029,-1.41918 7.709268,-2.94089 11.050598,-3.61711 1.064834,-0.2155 3.844167,-0.70105 4.012872,-0.70105 0.208778,0 -0.167003,-1.19396 -0.630337,-2.00275 -0.222674,-0.3887 -1.146034,-2.62476 -1.620974,-3.92544 -1.063764,-2.91323 -1.985144,-6.46608 -2.507594,-9.66927 -0.249865,-1.53195 -0.358487,-1.89932 -0.56157,-1.89932 -0.105103,0 -0.915781,0.32981 -1.801508,0.7329 -2.854839,1.29923 -5.45964,2.26 -7.653711,2.82303 -0.47483,0.12185 -1.459024,0.38001 -2.187097,0.5737 -0.728073,0.19369 -2.126664,0.48643 -3.10798,0.65055 -0.981316,0.16411 -1.95254,0.35111 -2.158276,0.41555 -0.330596,0.10355 -0.365467,0.15292 -0.300086,0.42481 0.04069,0.1692 0.190425,0.54084 0.332749,0.82585 0.617313,1.23621 2.039835,4.83182 2.618518,6.61864 0.70356,2.17241 1.506395,5.39257 1.851069,7.42462 0.155712,0.918 0.338203,1.81147 0.405537,1.98549 l 0.122426,0.31639 0.607241,-0.27477 c 0.333982,-0.15112 1.021638,-0.46694 1.528123,-0.70182 z m 15.252126,-51.62853 c 0.06777,-0.12662 0.149109,-0.23022 0.180764,-0.23022 0.03167,0 0.0022,0.1036 -0.06565,0.23022 -0.06777,0.12662 -0.149109,0.23022 -0.180764,0.23022 -0.03167,0 -0.0022,-0.1036 0.06565,-0.23022 z"
         id="path1014"
         inkscape:connector-curvature="0" />
      <path
         style="fill:#d70b8b;stroke-width:0.11511037"
         d="m -106.51339,254.06927 c -3.22703,-0.83427 -5.6217,-3.09106 -6.60141,-6.22133 -0.32039,-1.02367 -0.44569,-3.2903 -0.2401,-4.34301 0.18117,-0.92762 0.61741,-2.17923 0.96952,-2.78164 1.02863,-1.75985 2.39513,-5.50099 2.99766,-8.20687 0.56081,-2.51852 0.7551,-4.36957 0.75634,-7.20587 10e-4,-2.75759 -0.10977,-3.97207 -0.57543,-6.29776 -1.0302,-5.14513 -3.03607,-9.62411 -6.15794,-13.75023 -2.69722,-3.56486 -5.72652,-6.22231 -9.98945,-8.76322 -1.77439,-1.05762 -2.24709,-1.40068 -3.07512,-2.23172 -1.15723,-1.16143 -1.72352,-2.08313 -2.19463,-3.57198 -1.01694,-3.21382 -0.25716,-6.60641 2.03367,-9.08071 1.75723,-1.89797 4.06343,-2.88916 6.72225,-2.88916 1.68032,0 2.71812,0.27408 4.76308,1.25787 4.34361,2.08965 7.18164,2.93383 11.66595,3.47011 6.225146,0.74447 13.229694,-0.61244 18.896731,-3.66061 4.785,-2.57376 8.525444,-5.86744 11.524158,-10.14771 0.474832,-0.67776 0.953071,-1.35985 1.062759,-1.51575 l 0.199428,-0.28345 -0.108757,0.31263 c -0.05982,0.17195 -0.208417,0.50865 -0.330226,0.74822 -0.416794,0.81976 -1.311636,3.08246 -1.856617,4.69467 -1.29758,3.83858 -1.901904,6.4859 -2.496339,10.93548 -0.311552,2.33214 -0.301503,9.3269 0.0161,11.2068 0.07366,0.43596 0.05634,0.48413 -0.210553,0.5856 -0.159947,0.0608 -0.641849,0.27469 -1.070899,0.47529 -0.42905,0.20059 -0.984543,0.43685 -1.234425,0.52502 -0.249883,0.0882 -0.513022,0.209 -0.584755,0.26853 -0.137084,0.11377 -1.198624,0.51546 -3.391816,1.28347 -0.723395,0.25332 -1.415992,0.51449 -1.539103,0.58037 -0.176998,0.0947 -0.205354,0.0873 -0.135505,-0.0356 0.07119,-0.12524 0.05826,-0.12746 -0.06669,-0.0115 -0.08526,0.0791 -0.263799,0.14389 -0.396751,0.14389 -0.132953,0 -0.290942,0.0442 -0.351087,0.0983 -0.06015,0.0541 -0.601451,0.21462 -1.202903,0.3568 -0.601452,0.14217 -1.410849,0.35446 -1.798661,0.47175 -0.387811,0.11729 -1.061207,0.27219 -1.496435,0.34422 -0.435227,0.072 -1.17982,0.20009 -1.654651,0.28458 -0.47483,0.0845 -1.070526,0.18652 -1.323769,0.22674 -0.253243,0.0402 -0.552879,0.14179 -0.665859,0.22573 -0.24001,0.17831 -0.205229,0.30009 0.610013,2.13585 1.957699,4.40834 3.355419,8.9161 4.068921,13.12258 0.155712,0.91801 0.338203,1.81148 0.405537,1.9855 l 0.122426,0.31638 0.60724,-0.27476 c 0.333983,-0.15112 1.021638,-0.46694 1.528124,-0.70182 3.060595,-1.41933 7.710899,-2.94143 11.050598,-3.61701 3.562803,-0.7207 4.786226,-0.88023 8.014549,-1.04505 5.074895,-0.25909 10.065784,0.23397 15.007523,1.48262 2.130838,0.53841 4.942105,1.42938 5.174211,1.63987 0.06015,0.0545 0.194639,0.0992 0.298871,0.0992 0.104232,0 0.339919,0.0712 0.52375,0.15815 0.183832,0.087 1.007636,0.43319 1.830675,0.76932 2.396139,0.9786 4.539907,2.20272 5.599581,3.19744 3.796767,3.56405 4.00183,9.29881 0.466513,13.04644 -1.737706,1.84205 -4.110434,2.8709 -6.623657,2.87211 -1.796953,8.7e-4 -2.68138,-0.25488 -5.543288,-1.60295 -3.145561,-1.48168 -5.622087,-2.27485 -8.921055,-2.85719 -2.063743,-0.3643 -6.472735,-0.5058 -8.704394,-0.27937 -6.063249,0.61522 -11.805574,2.8829 -16.82563,6.64457 -1.332197,0.99825 -4.272366,3.80796 -5.399557,5.15997 -1.289191,1.54632 -2.542182,3.43384 -4.115475,6.19961 -0.46624,0.81963 -1.840913,2.21818 -2.79592,2.8445 -2.119081,1.38973 -4.799271,1.83638 -7.237321,1.20608 z"
         id="path1012"
         inkscape:connector-curvature="0" />
      <path
         style="fill:#8a258b;stroke-width:0.11511037"
         d="m -106.51339,254.06927 c -3.22703,-0.83427 -5.6217,-3.09106 -6.60141,-6.22133 -0.32039,-1.02367 -0.44569,-3.2903 -0.2401,-4.34301 0.18117,-0.92762 0.61741,-2.17923 0.96952,-2.78164 1.02863,-1.75985 2.39513,-5.50099 2.99766,-8.20687 0.56081,-2.51852 0.7551,-4.36957 0.75634,-7.20587 10e-4,-2.75759 -0.10977,-3.97207 -0.57543,-6.29776 -1.0302,-5.14513 -3.03607,-9.62411 -6.15794,-13.75023 -2.69722,-3.56486 -5.72652,-6.22231 -9.98945,-8.76322 -1.77439,-1.05762 -2.24709,-1.40068 -3.07512,-2.23172 -1.15723,-1.16143 -1.72352,-2.08313 -2.19463,-3.57198 -1.01694,-3.21382 -0.25716,-6.60641 2.03367,-9.08071 1.75723,-1.89797 4.06343,-2.88916 6.72225,-2.88916 1.68032,0 2.71812,0.27408 4.76308,1.25787 4.34361,2.08965 7.18164,2.93383 11.66595,3.47011 6.225146,0.74447 13.229694,-0.61244 18.896731,-3.66061 4.785,-2.57376 8.525444,-5.86744 11.524158,-10.14771 0.474832,-0.67776 0.953071,-1.35985 1.062759,-1.51575 l 0.199428,-0.28345 -0.108757,0.31263 c -0.05982,0.17195 -0.208417,0.50865 -0.330226,0.74822 -0.416794,0.81976 -1.311636,3.08246 -1.856617,4.69467 -1.29758,3.83858 -1.901904,6.4859 -2.496339,10.93548 -0.311552,2.33214 -0.301503,9.3269 0.0161,11.2068 0.07366,0.43596 0.05634,0.48413 -0.210553,0.5856 -0.159947,0.0608 -0.641849,0.27469 -1.070899,0.47529 -0.42905,0.20059 -0.984543,0.43685 -1.234425,0.52502 -0.249883,0.0882 -0.513022,0.209 -0.584755,0.26853 -0.137084,0.11377 -1.198624,0.51546 -3.391816,1.28347 -0.723395,0.25332 -1.415992,0.51449 -1.539103,0.58037 -0.176998,0.0947 -0.205354,0.0873 -0.135505,-0.0356 0.07119,-0.12524 0.05826,-0.12746 -0.06669,-0.0115 -0.08526,0.0791 -0.263799,0.14389 -0.396751,0.14389 -0.132953,0 -0.290942,0.0442 -0.351087,0.0983 -0.06015,0.0541 -0.601451,0.21462 -1.202903,0.3568 -0.601452,0.14217 -1.410849,0.35446 -1.798661,0.47175 -0.387811,0.11729 -1.061207,0.27219 -1.496435,0.34422 -0.435227,0.072 -1.17982,0.20009 -1.654651,0.28458 -0.47483,0.0845 -1.070526,0.18652 -1.323769,0.22674 -0.253243,0.0402 -0.552879,0.14179 -0.665859,0.22573 -0.24001,0.17831 -0.205229,0.30009 0.610013,2.13585 1.957699,4.40834 3.355419,8.9161 4.068921,13.12258 0.155712,0.91801 0.338203,1.81148 0.405537,1.9855 l 0.122426,0.31638 0.60724,-0.27476 c 0.333983,-0.15112 1.021638,-0.46694 1.528124,-0.70182 3.06029,-1.41918 7.709267,-2.9409 11.050598,-3.61711 0.975585,-0.19744 3.73739,-0.69035 4.159957,-0.74245 0.0721,-0.009 0.399627,0.49992 0.72783,1.13068 0.328203,0.63076 0.748356,1.3715 0.933675,1.64609 0.18532,0.27459 0.336939,0.57004 0.336939,0.65656 0,0.0865 0.04674,0.17457 0.103867,0.19567 0.05712,0.0211 0.481649,0.60817 0.943386,1.30459 1.272228,1.91883 1.766599,2.57352 3.607324,4.77707 0.94821,1.13512 2.166273,2.4331 3.332899,3.55156 0.372879,0.35749 0.839075,0.80905 1.035993,1.00348 0.196914,0.19442 0.798327,0.70651 1.336465,1.13795 0.538142,0.43146 1.063076,0.86808 1.166521,0.97027 0.103445,0.1022 0.353428,0.31531 0.555523,0.47359 0.202091,0.15828 0.475028,0.37843 0.606526,0.48922 0.131497,0.11079 0.279262,0.20144 0.328363,0.20144 0.0491,0 0.157724,0.0659 0.241382,0.14637 0.304513,0.293 3.505945,2.50117 3.626235,2.50117 0.03233,0 0.196257,0.0971 0.364305,0.21585 0.168051,0.11872 0.771745,0.45987 1.341538,0.75813 1.589545,0.83204 1.437626,0.84167 -0.34651,0.022 -2.893817,-1.32955 -5.445325,-2.12678 -8.574545,-2.67916 -2.063743,-0.36429 -6.472735,-0.5058 -8.704394,-0.27937 -6.063249,0.61522 -11.805574,2.88291 -16.82563,6.64457 -1.332197,0.99825 -4.272366,3.80796 -5.399557,5.15997 -1.289191,1.54632 -2.542182,3.43385 -4.115475,6.19961 -0.46624,0.81963 -1.840913,2.21818 -2.79592,2.8445 -2.119081,1.38974 -4.799271,1.83638 -7.237321,1.20608 z m 58.294415,-17.40811 c 0.08309,-0.0332 0.182378,-0.0291 0.220629,0.009 0.03824,0.0382 -0.02976,0.0655 -0.151084,0.0605 -0.134095,-0.006 -0.161374,-0.0328 -0.06954,-0.0695 z m 2.124538,-0.001 c 0.111998,-0.0292 0.267398,-0.0273 0.345331,0.004 0.07793,0.0315 -0.0137,0.0554 -0.203635,0.0531 -0.189931,-0.002 -0.253694,-0.0282 -0.141696,-0.0573 z m -3.620972,-0.3442 c 0.08309,-0.0332 0.182379,-0.0292 0.220625,0.009 0.03824,0.0382 -0.02976,0.0655 -0.15108,0.0605 -0.134099,-0.006 -0.161373,-0.0328 -0.06954,-0.0695 z m 9.370849,-2.56668 c 0.07831,-0.1254 0.219981,-0.25777 0.314821,-0.29417 0.09484,-0.0364 0.04807,0.0662 -0.103924,0.228 -0.331339,0.35269 -0.404091,0.37552 -0.210897,0.0662 z m 2.418697,-5.29729 c 0,-0.22159 0.02371,-0.31224 0.05264,-0.20144 0.02898,0.1108 0.02898,0.29209 0,0.40289 -0.02897,0.11079 -0.05264,0.0201 -0.05264,-0.20145 z m 0,-1.72666 c 0,-0.22158 0.02371,-0.31223 0.05264,-0.20144 0.02898,0.1108 0.02898,0.29209 0,0.40289 -0.02897,0.1108 -0.05264,0.0202 -0.05264,-0.20145 z m -2.444026,-5.30186 c 0,-0.067 0.0518,-0.0899 0.115113,-0.0508 0.06331,0.0391 0.115109,0.094 0.115109,0.12191 0,0.0279 -0.0518,0.0508 -0.115109,0.0508 -0.06331,0 -0.115113,-0.0549 -0.115113,-0.1219 z m -1.898505,-1.60344 c -0.04033,-0.0652 0.0059,-0.0845 0.108317,-0.0452 0.19942,0.0765 0.235904,0.15904 0.07033,0.15904 -0.05957,0 -0.139964,-0.0512 -0.178645,-0.1138 z m -1.209475,-0.69877 c 0,-0.067 0.0518,-0.0899 0.115113,-0.0508 0.06331,0.0391 0.115109,0.094 0.115109,0.1219 0,0.0279 -0.0518,0.0508 -0.115109,0.0508 -0.06331,0 -0.115113,-0.0549 -0.115113,-0.1219 z"
         id="path1010"
         inkscape:connector-curvature="0" />
      <path
         style="fill:#37a650;stroke-width:0.11511037"
         d="m -105.50303,254.22595 c -1.26995,-0.19414 -2.7765,-0.74641 -3.71202,-1.36076 -2.86309,-1.88017 -4.3697,-4.77432 -4.22062,-8.10769 0.0711,-1.59064 0.28243,-2.28831 1.43465,-4.73706 0.87559,-1.86086 0.9519,-2.05111 1.77634,-4.42839 0.56784,-1.63735 1.18351,-4.41648 1.41611,-6.39222 0.20534,-1.74422 0.23622,-5.74723 0.0571,-7.40015 -0.1564,-1.4432 -0.696,-4.13204 -1.13288,-5.64518 -1.58532,-5.49076 -4.5429,-10.44159 -8.70303,-14.56835 -2.16085,-2.14353 -3.63488,-3.24066 -7.13684,-5.312 -2.79407,-1.65264 -4.1437,-3.18925 -4.89972,-5.57851 -1.01694,-3.21382 -0.25716,-6.60641 2.03367,-9.08071 1.75723,-1.89797 4.06343,-2.88916 6.72225,-2.88916 1.68032,0 2.71812,0.27408 4.76308,1.25787 4.34361,2.08965 7.18164,2.93383 11.66595,3.47011 6.225146,0.74447 13.229694,-0.61244 18.896731,-3.66061 4.785,-2.57376 8.525444,-5.86744 11.524158,-10.14771 0.474832,-0.67776 0.953071,-1.35985 1.062759,-1.51575 l 0.199428,-0.28345 -0.108757,0.31263 c -0.05982,0.17195 -0.208417,0.50865 -0.330226,0.74822 -0.416794,0.81976 -1.311636,3.08246 -1.856617,4.69467 -1.29758,3.83858 -1.901904,6.4859 -2.496339,10.93548 -0.311552,2.33214 -0.301503,9.3269 0.0161,11.2068 0.07366,0.43596 0.05634,0.48413 -0.210553,0.5856 -0.159947,0.0608 -0.641849,0.27469 -1.070899,0.47529 -0.42905,0.20059 -0.984543,0.43685 -1.234425,0.52502 -0.249883,0.0882 -0.513022,0.209 -0.584755,0.26853 -0.137084,0.11377 -1.198624,0.51546 -3.391816,1.28347 -0.723395,0.25332 -1.415992,0.51449 -1.539103,0.58037 -0.176998,0.0947 -0.205354,0.0873 -0.135505,-0.0356 0.07119,-0.12524 0.05826,-0.12746 -0.06669,-0.0115 -0.08526,0.0791 -0.263799,0.14389 -0.396751,0.14389 -0.132953,0 -0.290942,0.0442 -0.351087,0.0983 -0.06015,0.0541 -0.601451,0.21462 -1.202903,0.3568 -0.601452,0.14217 -1.410849,0.35446 -1.798661,0.47175 -0.387811,0.11729 -1.061207,0.27219 -1.496435,0.34422 -0.435227,0.072 -1.17982,0.20009 -1.654651,0.28458 -0.47483,0.0845 -1.070526,0.18652 -1.323769,0.22674 -0.253243,0.0402 -0.552879,0.14179 -0.665859,0.22573 -0.24001,0.17831 -0.205229,0.30009 0.610013,2.13585 1.923575,4.3315 3.377402,8.98976 4.023665,12.89236 0.279741,1.68928 0.475719,2.53243 0.588625,2.53243 0.04465,0 0.08079,0.11655 0.08031,0.259 -4.79e-4,0.14245 0.06097,0.6734 0.136531,1.17988 0.07698,0.51597 0.164318,2.85332 0.19863,5.31573 0.0574,4.11967 0.07405,4.39388 0.265884,4.37943 0.112555,-0.008 0.180905,-0.0773 0.15189,-0.1529 -0.08476,-0.22089 0.179121,-0.30636 0.366709,-0.11877 0.2177,0.2177 0.217451,0.30334 -9.14e-4,0.30334 -0.09497,0 -0.172665,0.0957 -0.172665,0.21261 0,0.27612 0.376969,0.70827 0.617832,0.70827 0.158186,0 0.187941,0.1458 0.187941,0.92088 0,0.53719 0.04796,0.92089 0.11511,0.92089 0.06331,0 0.11511,0.17094 0.11511,0.37986 0,0.42328 0.171577,0.65613 0.483464,0.65613 0.190878,0 0.207198,0.14485 0.207198,1.83892 v 1.83892 l 0.287777,-0.10942 c 0.183889,-0.0699 0.395148,-0.0686 0.585211,0.003 0.16359,0.0622 0.334412,0.0902 0.379604,0.0623 0.04519,-0.0279 0.141088,-0.0144 0.213097,0.0301 0.08227,0.0508 -0.0015,0.1569 -0.225368,0.2854 -0.320703,0.18406 -0.340171,0.18506 -0.194883,0.01 0.145118,-0.17485 0.135357,-0.18622 -0.09668,-0.11258 -0.157312,0.05 -0.258058,0.034 -0.258058,-0.0409 0,-0.0676 -0.0777,-0.12286 -0.172666,-0.12286 -0.09497,0 -0.172665,0.0518 -0.172665,0.11511 0,0.0633 0.05362,0.1151 0.11916,0.1151 0.07656,0 0.06982,0.0926 -0.01885,0.259 -0.1258,0.23609 -0.120822,0.24482 0.05629,0.0987 0.10686,-0.0882 0.231891,-0.12255 0.277844,-0.0764 0.04595,0.0461 -0.03874,0.183 -0.1882,0.30417 -0.30827,0.24993 -0.531163,0.29175 -0.40725,0.0764 0.04731,-0.0822 0.03852,-0.1034 -0.02052,-0.0494 -0.05683,0.052 -0.103981,0.1574 -0.104789,0.23432 -8.26e-4,0.0769 -0.446795,0.53627 -0.991084,1.02076 -2.108937,1.87723 -4.335251,4.42079 -5.821134,6.65063 -0.316409,0.47483 -1.019783,1.61443 -1.563054,2.53243 -0.543272,0.918 -1.254226,1.96564 -1.579898,2.32808 -0.632992,0.70445 -2.125872,1.76348 -3.035672,2.15347 -1.42444,0.61059 -3.49307,0.90149 -4.89096,0.6878 z m 51.33106,-19.90826 c -1.124359,-0.51013 -4.276311,-1.52822 -5.672071,-1.83211 -1.109476,-0.24156 -3.047898,-0.52355 -4.39956,-0.64003 -0.500975,-0.0432 -0.845018,-0.11801 -0.766259,-0.16669 0.07861,-0.0486 0.384147,-0.0704 0.678972,-0.0484 0.417404,0.0311 0.472348,0.0175 0.248264,-0.0614 -0.158275,-0.0558 -0.45307,-0.10655 -0.655091,-0.11286 -0.202022,-0.006 -0.399853,-0.0641 -0.439618,-0.12846 -0.03976,-0.0643 -0.123467,-0.0854 -0.186002,-0.0467 -0.143815,0.0889 -0.729031,-0.052 -0.629489,-0.15156 0.04063,-0.0406 0.317174,-0.0942 0.614583,-0.11917 0.297405,-0.0249 0.671733,-0.11433 0.831845,-0.19869 0.277579,-0.14624 0.25754,-0.15719 -0.431265,-0.23576 -0.639629,-0.073 -0.714438,-0.10741 -0.653077,-0.30073 0.03811,-0.12008 0.03402,-0.54759 -0.009,-0.95003 -0.07461,-0.6967 -0.09567,-0.73664 -0.440471,-0.8352 -0.361629,-0.10337 -0.362159,-0.1047 -0.395733,-0.99165 -0.03006,-0.79359 -0.05762,-0.88814 -0.259002,-0.88814 -0.186202,0 -0.22538,-0.08 -0.22538,-0.46044 0,-0.33254 -0.04796,-0.46044 -0.172663,-0.46044 -0.119286,0 -0.178754,-0.13346 -0.192355,-0.43167 -0.04581,-1.00441 -0.15992,-1.4101 -0.396625,-1.4101 -0.114478,0 -0.159237,-0.16279 -0.159237,-0.57917 0,-0.44604 -0.0463,-0.59653 -0.201443,-0.65475 -0.239071,-0.0897 -0.480431,-0.37755 -0.48556,-0.57907 -0.0063,-0.24565 0.441175,-0.15792 0.587143,0.11511 0.07615,0.14245 0.375825,0.4921 0.665933,0.77699 0.290113,0.28491 0.724624,0.76336 0.965583,1.06324 0.661879,0.82372 3.561325,3.69364 4.9204,4.8703 1.110467,0.96141 2.692308,2.21132 3.492393,2.75953 0.183,0.1254 0.474036,0.33159 0.646743,0.45821 0.172706,0.12662 0.69637,0.48102 1.163701,0.78755 0.467332,0.30653 1.151333,0.75977 1.52001,1.00721 0.368676,0.24744 0.715265,0.44989 0.7702,0.44989 0.05494,0 0.131898,0.0518 0.171028,0.11512 0.09307,0.15059 0.08532,0.14876 -0.506835,-0.1199 z m -10.831538,-8.28317 c 0,-0.0633 -0.0518,-0.1151 -0.115109,-0.1151 -0.06331,0 -0.115113,0.0518 -0.115113,0.1151 0,0.0633 0.0518,0.11512 0.115113,0.11512 0.06331,0 0.115109,-0.0518 0.115109,-0.11512 z m -1.956878,-1.25942 c 0,-0.0596 -0.0518,-0.14032 -0.115109,-0.17945 -0.06331,-0.0391 -0.115109,0.01 -0.115109,0.10831 0,0.0987 0.0518,0.17946 0.115109,0.17946 0.06331,0 0.115109,-0.0487 0.115109,-0.10832 z m 0.522732,-0.47489 c 0.09741,-0.1576 0.06365,-0.18657 -0.333697,-0.28629 -0.326075,-0.0818 -0.326941,-0.0806 -0.118067,0.16331 0.23529,0.2748 0.340271,0.30338 0.451764,0.12298 z m -0.75295,-0.92281 c 0,-0.28053 -0.268986,-0.24088 -0.324996,0.0479 -0.02201,0.11358 0.03668,0.1919 0.143888,0.1919 0.106782,0 0.181108,-0.0984 0.181108,-0.23981 z m -1.787825,-2.00484 c -0.02967,-0.095 -0.07822,-0.25037 -0.107883,-0.34533 -0.02967,-0.095 -0.01414,-0.17267 0.03454,-0.17267 0.159512,0 0.36474,0.27203 0.36474,0.48346 0,0.25059 -0.215896,0.27618 -0.291388,0.0345 z m -0.578077,-0.82836 c -0.126085,-0.12608 -0.150593,-0.21295 -0.06786,-0.24052 0.168961,-0.0563 0.511168,0.28589 0.37194,0.37193 -0.0587,0.0363 -0.195526,-0.0228 -0.30408,-0.13141 z m -1.317631,-2.34397 c 0,-0.067 0.0518,-0.0899 0.115109,-0.0508 0.06331,0.0391 0.115113,0.094 0.115113,0.1219 0,0.0279 -0.0518,0.0508 -0.115113,0.0508 -0.06331,0 -0.115109,-0.0549 -0.115109,-0.1219 z"
         id="path1008"
         inkscape:connector-curvature="0" />
      <path
         style="fill:#0065ab;stroke-width:0.11511037"
         d="m -105.50303,254.22595 c -4.65689,-0.71189 -7.96195,-4.49608 -7.96195,-9.11619 0,-1.72482 0.24818,-2.51921 1.87763,-6.01021 2.24317,-4.80584 3.25673,-10.12313 2.96214,-15.5399 -0.29061,-5.34378 -1.96459,-10.81823 -4.69705,-15.36082 -0.47366,-0.78746 -2.38665,-3.55016 -2.55504,-3.68994 -0.0381,-0.0317 -0.4701,-0.53357 -0.95993,-1.11534 -1.68581,-2.00228 -4.70469,-4.62275 -6.79229,-5.89592 -0.61948,-0.37781 -0.44681,-0.42779 0.28333,-0.082 0.96149,0.45533 3.13336,1.31565 4.58614,1.81668 0.72807,0.25109 1.42737,0.50323 1.55399,0.56031 0.42682,0.19239 4.93769,1.23549 6.38862,1.47731 4.0318,0.67194 5.11358,0.74728 9.55416,0.66534 2.120913,-0.0391 4.205849,-0.1037 4.633196,-0.14348 0.584814,-0.0545 0.776996,-0.0366 0.776996,0.0721 0,0.0794 0.333404,0.87542 0.740899,1.76885 0.792062,1.7366 1.530151,3.54091 1.982975,4.84752 0.829167,2.39254 1.747574,5.9893 2.101569,8.23038 0.257856,1.63246 0.449742,2.41732 0.590992,2.41732 0.04648,0 0.08412,0.11656 0.08365,0.259 -4.79e-4,0.14245 0.06097,0.6734 0.136531,1.17989 0.07698,0.51596 0.164318,2.85332 0.19863,5.31572 0.0574,4.11967 0.07405,4.39388 0.265884,4.37943 0.112555,-0.008 0.180906,-0.0773 0.151891,-0.1529 -0.08476,-0.22089 0.179121,-0.30635 0.366708,-0.11877 0.2177,0.2177 0.217452,0.30334 -9.13e-4,0.30334 -0.09497,0 -0.172666,0.0957 -0.172666,0.21261 0,0.27612 0.376969,0.70827 0.617832,0.70827 0.158186,0 0.187941,0.1458 0.187941,0.92089 0,0.53718 0.04796,0.92088 0.11511,0.92088 0.06331,0 0.11511,0.17094 0.11511,0.37986 0,0.42328 0.171577,0.65613 0.483464,0.65613 0.190879,0 0.207199,0.14485 0.207199,1.83892 v 1.83892 l 0.287776,-0.10942 c 0.18389,-0.0699 0.395148,-0.0686 0.585212,0.003 0.163589,0.0622 0.334412,0.0902 0.379604,0.0623 0.04519,-0.0279 0.141087,-0.0144 0.213097,0.0301 0.08227,0.0508 -0.0015,0.1569 -0.225369,0.2854 -0.320702,0.18405 -0.340171,0.18506 -0.194882,0.01 0.145117,-0.17486 0.135356,-0.18622 -0.09668,-0.11258 -0.157312,0.0499 -0.258058,0.034 -0.258058,-0.0409 0,-0.0676 -0.0777,-0.12286 -0.172665,-0.12286 -0.09497,0 -0.172666,0.0518 -0.172666,0.1151 0,0.0633 0.05362,0.11511 0.11916,0.11511 0.07656,0 0.06982,0.0926 -0.01885,0.259 -0.125799,0.23609 -0.120822,0.24482 0.05629,0.0987 0.10686,-0.0882 0.231891,-0.12255 0.277844,-0.0764 0.04595,0.0461 -0.03874,0.18301 -0.188199,0.30418 -0.308271,0.24992 -0.531163,0.29175 -0.407251,0.0764 0.04731,-0.0822 0.03852,-0.10341 -0.02052,-0.0494 -0.05683,0.052 -0.103981,0.1574 -0.104788,0.23432 -8.27e-4,0.0769 -0.446796,0.53627 -0.991085,1.02076 -2.108937,1.87723 -4.335251,4.42079 -5.821134,6.65063 -0.316408,0.47483 -1.019782,1.61442 -1.563053,2.53243 -0.543272,0.918 -1.254226,1.96564 -1.579899,2.32808 -0.632992,0.70445 -2.125872,1.76348 -3.035672,2.15347 -1.42444,0.61059 -3.49307,0.90149 -4.89095,0.6878 z m 51.33106,-19.90826 c -1.124359,-0.51013 -4.276311,-1.52822 -5.672071,-1.83211 -1.109476,-0.24156 -3.047898,-0.52355 -4.39956,-0.64003 -0.500975,-0.0432 -0.845018,-0.11801 -0.766259,-0.16669 0.07861,-0.0486 0.384147,-0.0704 0.678972,-0.0484 0.417404,0.0311 0.472348,0.0175 0.248264,-0.0614 -0.158275,-0.0558 -0.45307,-0.10655 -0.655091,-0.11286 -0.202022,-0.006 -0.399853,-0.0641 -0.439618,-0.12846 -0.03976,-0.0643 -0.123467,-0.0854 -0.186002,-0.0467 -0.143815,0.0889 -0.729031,-0.052 -0.629489,-0.15156 0.04063,-0.0406 0.317174,-0.0942 0.614583,-0.11917 0.297405,-0.0249 0.671733,-0.11433 0.831845,-0.19869 0.277579,-0.14624 0.25754,-0.15719 -0.431265,-0.23576 -0.639629,-0.073 -0.714438,-0.10741 -0.653077,-0.30073 0.03811,-0.12008 0.03402,-0.54759 -0.009,-0.95003 -0.07461,-0.6967 -0.09567,-0.73664 -0.440471,-0.8352 -0.361629,-0.10337 -0.362159,-0.1047 -0.395733,-0.99165 -0.03006,-0.79359 -0.05762,-0.88814 -0.259002,-0.88814 -0.186202,0 -0.22538,-0.08 -0.22538,-0.46044 0,-0.33254 -0.04796,-0.46044 -0.172663,-0.46044 -0.119286,0 -0.178754,-0.13346 -0.192355,-0.43167 -0.04581,-1.00441 -0.15992,-1.4101 -0.396625,-1.4101 -0.114478,0 -0.159237,-0.16279 -0.159237,-0.57917 0,-0.44604 -0.0463,-0.59653 -0.201443,-0.65475 -0.239071,-0.0897 -0.480431,-0.37755 -0.48556,-0.57907 -0.0063,-0.24565 0.441175,-0.15792 0.587143,0.11511 0.07615,0.14245 0.375825,0.4921 0.665933,0.77699 0.290113,0.28491 0.724624,0.76336 0.965583,1.06324 0.661879,0.82372 3.561325,3.69364 4.9204,4.8703 1.110467,0.96141 2.692308,2.21132 3.492393,2.75953 0.183,0.1254 0.474036,0.33159 0.646743,0.45821 0.172706,0.12662 0.69637,0.48102 1.163701,0.78755 0.467332,0.30653 1.151333,0.75977 1.52001,1.00721 0.368676,0.24744 0.715265,0.44989 0.7702,0.44989 0.05494,0 0.131898,0.0518 0.171028,0.11512 0.09307,0.15059 0.08532,0.14876 -0.506835,-0.1199 z m -10.831538,-8.28317 c 0,-0.0633 -0.0518,-0.1151 -0.115109,-0.1151 -0.06331,0 -0.115113,0.0518 -0.115113,0.1151 0,0.0633 0.0518,0.11512 0.115113,0.11512 0.06331,0 0.115109,-0.0518 0.115109,-0.11512 z m -1.956878,-1.25942 c 0,-0.0596 -0.0518,-0.14032 -0.115109,-0.17945 -0.06331,-0.0391 -0.115109,0.01 -0.115109,0.10831 0,0.0987 0.0518,0.17946 0.115109,0.17946 0.06331,0 0.115109,-0.0487 0.115109,-0.10832 z m 0.522732,-0.47489 c 0.09741,-0.1576 0.06365,-0.18657 -0.333697,-0.28629 -0.326075,-0.0818 -0.326941,-0.0806 -0.118067,0.16331 0.23529,0.2748 0.340271,0.30338 0.451764,0.12298 z m -0.75295,-0.92281 c 0,-0.28053 -0.268986,-0.24088 -0.324996,0.0479 -0.02201,0.11358 0.03668,0.1919 0.143888,0.1919 0.106782,0 0.181108,-0.0984 0.181108,-0.23981 z m -1.787825,-2.00484 c -0.02967,-0.095 -0.07822,-0.25037 -0.107883,-0.34533 -0.02967,-0.095 -0.01414,-0.17267 0.03454,-0.17267 0.159512,0 0.36474,0.27203 0.36474,0.48346 0,0.25059 -0.215896,0.27618 -0.291388,0.0345 z m -0.578077,-0.82836 c -0.126085,-0.12608 -0.150593,-0.21295 -0.06786,-0.24052 0.168961,-0.0563 0.511168,0.28589 0.37194,0.37193 -0.0587,0.0363 -0.195526,-0.0228 -0.30408,-0.13141 z m -1.317631,-2.34397 c 0,-0.067 0.0518,-0.0899 0.115109,-0.0508 0.06331,0.0391 0.115113,0.094 0.115113,0.1219 0,0.0279 -0.0518,0.0508 -0.115113,0.0508 -0.06331,0 -0.115109,-0.0549 -0.115109,-0.1219 z"
         id="path1006"
         inkscape:connector-curvature="0" />
      <path
         style="fill:#2c3090;stroke-width:0.11511037"
         d="m -105.50303,254.22595 c -4.65689,-0.71189 -7.96195,-4.49608 -7.96195,-9.11619 0,-1.72517 0.24898,-2.52197 1.87804,-6.01021 0.90796,-1.94417 1.6685,-4.14112 2.21162,-6.38862 0.22184,-0.918 0.3717,-1.4101 0.33301,-1.09355 -0.0387,0.31655 -0.0729,0.71642 -0.0761,0.88858 -0.003,0.17216 -0.05,0.28566 -0.10418,0.2522 -0.0541,-0.0335 -0.099,0.0588 -0.0997,0.20498 -7e-4,0.14618 -0.0348,0.46872 -0.0757,0.71675 -0.0662,0.4008 -0.0516,0.44218 0.13118,0.37204 0.17789,-0.0683 0.19612,-0.0312 0.13504,0.2742 -0.0438,0.2192 -0.0276,0.32655 0.0427,0.28305 0.0624,-0.0386 0.11338,-0.14777 0.11338,-0.24274 0,-0.095 0.0518,-0.14065 0.11511,-0.10152 0.0633,0.0391 0.11511,-0.0127 0.11511,-0.11511 0,-0.10244 -0.0467,-0.15741 -0.10371,-0.12216 -0.057,0.0352 -0.0986,-0.11797 -0.0922,-0.3405 0.0123,-0.43521 0.22905,-0.49127 0.29029,-0.0751 0.0232,0.15754 0.11896,0.24998 0.259,0.24998 0.18411,0 0.22284,-0.0839 0.22587,-0.48922 0.003,-0.4263 0.0229,-0.46386 0.15347,-0.29203 0.13704,0.1804 0.18574,0.16038 0.57189,-0.23508 0.23215,-0.23774 0.42209,-0.49019 0.42209,-0.56099 0,-0.17562 1.10348,-1.35589 3.16553,-3.38584 2.13671,-2.10344 3.70812,-3.51719 4.591188,-4.13056 0.136723,-0.095 0.51529,-0.37986 0.841259,-0.6331 1.838424,-1.42826 2.956997,-2.19645 4.543526,-3.1203 2.204073,-1.28345 3.304181,-1.88701 3.439458,-1.88701 0.04713,0 0.0853,0.11656 0.08483,0.259 -4.78e-4,0.14245 0.06097,0.6734 0.136532,1.17989 0.07698,0.51596 0.164317,2.85332 0.19863,5.31572 0.0574,4.11967 0.07405,4.39388 0.265884,4.37943 0.112555,-0.008 0.180905,-0.0773 0.15189,-0.1529 -0.08476,-0.22089 0.179121,-0.30635 0.366709,-0.11877 0.2177,0.2177 0.217451,0.30334 -9.14e-4,0.30334 -0.09497,0 -0.172666,0.0957 -0.172666,0.21261 0,0.27612 0.37697,0.70827 0.617832,0.70827 0.158187,0 0.187941,0.1458 0.187941,0.92089 0,0.53718 0.04796,0.92088 0.115111,0.92088 0.06331,0 0.11511,0.17094 0.11511,0.37986 0,0.42328 0.171576,0.65613 0.483463,0.65613 0.190879,0 0.207199,0.14485 0.207199,1.83892 v 1.83892 l 0.287776,-0.10942 c 0.18389,-0.0699 0.395149,-0.0686 0.585212,0.003 0.163589,0.0622 0.334412,0.0902 0.379604,0.0623 0.04519,-0.0279 0.141088,-0.0144 0.213097,0.0301 0.08227,0.0508 -0.0015,0.1569 -0.225369,0.2854 -0.320702,0.18405 -0.340171,0.18506 -0.194882,0.01 0.145118,-0.17486 0.135357,-0.18622 -0.09668,-0.11258 -0.157313,0.0499 -0.258058,0.034 -0.258058,-0.0409 0,-0.0676 -0.0777,-0.12286 -0.172666,-0.12286 -0.09497,0 -0.172666,0.0518 -0.172666,0.1151 0,0.0633 0.05362,0.11511 0.11916,0.11511 0.07656,0 0.06982,0.0926 -0.01885,0.259 -0.125799,0.23609 -0.120821,0.24482 0.05629,0.0987 0.106861,-0.0882 0.231891,-0.12255 0.277845,-0.0764 0.04595,0.0461 -0.03874,0.18301 -0.1882,0.30418 -0.30827,0.24992 -0.531163,0.29175 -0.40725,0.0764 0.04732,-0.0822 0.03852,-0.10341 -0.02052,-0.0494 -0.05683,0.052 -0.10398,0.1574 -0.104788,0.23432 -8.27e-4,0.0769 -0.446795,0.53627 -0.991084,1.02076 -2.108938,1.87723 -4.335252,4.42079 -5.821134,6.65063 -0.316409,0.47483 -1.019783,1.61442 -1.563054,2.53243 -0.543272,0.918 -1.254226,1.96564 -1.579898,2.32808 -0.632992,0.70445 -2.125872,1.76348 -3.035677,2.15347 -1.42444,0.61059 -3.49307,0.90149 -4.89095,0.6878 z m -3.93485,-19.18404 c -9.1e-4,-0.0475 -0.052,-0.16403 -0.11334,-0.25899 -0.0902,-0.13963 -0.11192,-0.12311 -0.11335,0.0863 -9.1e-4,0.14245 0.05,0.259 0.11335,0.259 0.0633,0 0.11431,-0.0388 0.11334,-0.0863 z m 55.26591,-0.72422 c -1.124359,-0.51013 -4.276311,-1.52822 -5.672071,-1.83211 -1.109476,-0.24156 -3.047898,-0.52355 -4.39956,-0.64003 -0.500975,-0.0432 -0.845018,-0.11801 -0.766259,-0.16669 0.07861,-0.0486 0.384147,-0.0704 0.678972,-0.0484 0.417404,0.0311 0.472348,0.0175 0.248264,-0.0614 -0.158275,-0.0558 -0.45307,-0.10655 -0.655091,-0.11286 -0.202022,-0.006 -0.399853,-0.0641 -0.439618,-0.12846 -0.03976,-0.0643 -0.123467,-0.0854 -0.186002,-0.0467 -0.143815,0.0889 -0.729031,-0.052 -0.629489,-0.15156 0.04063,-0.0406 0.317174,-0.0942 0.614583,-0.11917 0.297405,-0.0249 0.671733,-0.11433 0.831845,-0.19869 0.277579,-0.14624 0.25754,-0.15719 -0.431265,-0.23576 -0.639629,-0.073 -0.714438,-0.10741 -0.653077,-0.30073 0.03811,-0.12008 0.03402,-0.54759 -0.009,-0.95003 -0.07461,-0.6967 -0.09567,-0.73664 -0.440471,-0.8352 -0.361629,-0.10337 -0.362159,-0.1047 -0.395733,-0.99165 -0.03006,-0.79359 -0.05762,-0.88814 -0.259002,-0.88814 -0.186202,0 -0.22538,-0.08 -0.22538,-0.46044 0,-0.33254 -0.04796,-0.46044 -0.172663,-0.46044 -0.119286,0 -0.178754,-0.13346 -0.192355,-0.43167 -0.04581,-1.00441 -0.15992,-1.4101 -0.396625,-1.4101 -0.114478,0 -0.159237,-0.16279 -0.159237,-0.57917 0,-0.44604 -0.0463,-0.59653 -0.201443,-0.65475 -0.239071,-0.0897 -0.480431,-0.37755 -0.48556,-0.57907 -0.0063,-0.24565 0.441175,-0.15792 0.587143,0.11511 0.07615,0.14245 0.375825,0.4921 0.665933,0.77699 0.290113,0.28491 0.724624,0.76336 0.965583,1.06324 0.661879,0.82372 3.561325,3.69364 4.9204,4.8703 1.110467,0.96141 2.692308,2.21132 3.492393,2.75953 0.183,0.1254 0.474036,0.33159 0.646743,0.45821 0.172706,0.12662 0.69637,0.48102 1.163701,0.78755 0.467332,0.30653 1.151333,0.75977 1.52001,1.00721 0.368676,0.24744 0.715265,0.44989 0.7702,0.44989 0.05494,0 0.131898,0.0518 0.171028,0.11512 0.09307,0.15059 0.08532,0.14876 -0.506835,-0.1199 z m -10.831538,-8.28317 c 0,-0.0633 -0.0518,-0.1151 -0.115109,-0.1151 -0.06331,0 -0.115113,0.0518 -0.115113,0.1151 0,0.0633 0.0518,0.11512 0.115113,0.11512 0.06331,0 0.115109,-0.0518 0.115109,-0.11512 z m -1.956878,-1.25942 c 0,-0.0596 -0.0518,-0.14032 -0.115109,-0.17945 -0.06331,-0.0391 -0.115109,0.01 -0.115109,0.10831 0,0.0987 0.0518,0.17946 0.115109,0.17946 0.06331,0 0.115109,-0.0487 0.115109,-0.10832 z m 0.522732,-0.47489 c 0.09741,-0.1576 0.06365,-0.18657 -0.333697,-0.28629 -0.326075,-0.0818 -0.326941,-0.0806 -0.118067,0.16331 0.23529,0.2748 0.340271,0.30338 0.451764,0.12298 z m -0.75295,-0.92281 c 0,-0.28053 -0.268986,-0.24088 -0.324996,0.0479 -0.02201,0.11358 0.03668,0.1919 0.143888,0.1919 0.106782,0 0.181108,-0.0984 0.181108,-0.23981 z m -40.864186,8.9882 c 0,-0.0633 0.0549,-0.11511 0.12191,-0.11511 0.067,0 0.0899,0.0518 0.0508,0.11511 -0.0391,0.0633 -0.094,0.11511 -0.12191,0.11511 -0.0279,0 -0.0508,-0.0518 -0.0508,-0.11511 z m -0.91179,-1.6787 c 0.006,-0.13409 0.0328,-0.16137 0.0695,-0.0695 0.0333,0.0831 0.0292,0.18238 -0.009,0.22063 -0.0383,0.0382 -0.0655,-0.0298 -0.0605,-0.15109 z m 39.988151,-9.31434 c -0.02967,-0.095 -0.07822,-0.25037 -0.107883,-0.34533 -0.02967,-0.095 -0.01414,-0.17267 0.03454,-0.17267 0.159512,0 0.36474,0.27203 0.36474,0.48346 0,0.25059 -0.215896,0.27618 -0.291388,0.0345 z m -0.578077,-0.82836 c -0.126085,-0.12608 -0.150593,-0.21295 -0.06786,-0.24052 0.168961,-0.0563 0.511168,0.28589 0.37194,0.37193 -0.0587,0.0363 -0.195526,-0.0228 -0.30408,-0.13141 z m -1.317631,-2.34397 c 0,-0.067 0.0518,-0.0899 0.115109,-0.0508 0.06331,0.0391 0.115113,0.094 0.115113,0.1219 0,0.0279 -0.0518,0.0508 -0.115113,0.0508 -0.06331,0 -0.115109,-0.0549 -0.115109,-0.1219 z m -44.087273,-12.54024 c -0.0678,-0.12662 -0.0973,-0.23022 -0.0657,-0.23022 0.0317,0 0.113,0.1036 0.18077,0.23022 0.0678,0.12662 0.0973,0.23022 0.0657,0.23022 -0.0316,0 -0.113,-0.1036 -0.18076,-0.23022 z m -0.46044,-0.58235 c 0,-0.067 0.0518,-0.0899 0.11511,-0.0508 0.0633,0.0391 0.11511,0.094 0.11511,0.12191 0,0.0279 -0.0518,0.0508 -0.11511,0.0508 -0.0633,0 -0.11511,-0.0549 -0.11511,-0.12191 z m -0.34533,-0.45365 c -0.0678,-0.12662 -0.0973,-0.23021 -0.0657,-0.23021 0.0317,0 0.113,0.10359 0.18077,0.23021 0.0678,0.12663 0.0973,0.23023 0.0656,0.23023 -0.0316,0 -0.113,-0.1036 -0.18076,-0.23023 z m -0.769,-0.8921 c -1.56577,-1.94983 -4.47036,-4.52997 -6.80143,-6.04169 -0.39674,-0.25729 -0.70083,-0.48833 -0.67576,-0.5134 0.0251,-0.0251 0.44121,0.13961 0.92473,0.36599 2.02146,0.94641 6.46439,2.53392 8.40143,3.00192 0.78957,0.19076 0.86425,0.22953 0.57555,0.29874 -0.32929,0.0789 -1.27146,0.39375 -1.71308,0.5724 -0.12662,0.0512 -0.41034,0.10766 -0.63048,0.12542 -0.29313,0.0237 -0.4382,0.1088 -0.54198,0.31812 -0.0779,0.15719 -0.22676,0.348 -0.33071,0.424 -0.19745,0.14438 -0.1364,0.38116 0.0999,0.38729 0.0754,0.002 0.31807,0.24801 0.53925,0.54677 0.22119,0.29877 0.42838,0.56912 0.46044,0.60077 0.22644,0.2236 0.35646,0.46044 0.25276,0.46044 -0.0668,0 -0.31909,-0.24604 -0.56058,-0.54677 z m -1.06753,-1.91135 c -0.16988,-0.16987 -0.36907,0.0306 -0.20554,0.20682 0.10307,0.11109 0.16541,0.11766 0.22429,0.0237 0.0448,-0.0716 0.0364,-0.17532 -0.0188,-0.23048 z m -0.5082,-0.47952 c -0.039,-0.10171 -0.12565,-0.15113 -0.19248,-0.10983 -0.0834,0.0516 -0.0786,0.12685 0.0156,0.2403 0.16726,0.20153 0.27406,0.12276 0.17689,-0.13047 z m 0.9634,0.11065 c 0,-0.0987 -0.0526,-0.14693 -0.11699,-0.10716 -0.0643,0.0398 -0.0872,0.12052 -0.0508,0.17946 0.0987,0.15967 0.16775,0.12989 0.16775,-0.0723 z m 1.06406,1.48431 c -0.18137,-0.0731 -0.0712,-0.26886 0.15139,-0.26886 0.0912,0 0.16588,0.0777 0.16588,0.17266 0,0.17751 -0.066,0.19751 -0.31727,0.0962 z"
         id="path1004"
         inkscape:connector-curvature="0" />
      <path
         style="fill:#8a258b;fill-opacity:1;stroke-width:0.11511037"
         d="m -104.68781,254.27233 c 0.11079,-0.029 0.29209,-0.029 0.40289,0 0.11079,0.0289 0.0201,0.0526 -0.20145,0.0526 -0.22158,0 -0.31223,-0.0237 -0.20144,-0.0526 z m -6.30953,-2.82719 -0.33809,-0.37411 0.3741,0.3381 c 0.34873,0.31514 0.42702,0.41012 0.33809,0.41012 -0.0198,0 -0.18815,-0.16835 -0.3741,-0.37411 z m -1.23979,-1.6595 c -0.17483,-0.28945 -0.29546,-0.54869 -0.26806,-0.57609 0.0274,-0.0274 0.18602,0.19385 0.35247,0.49167 0.39288,0.70293 0.32823,0.76758 -0.0844,0.0844 z m 16.92095,-2.05281 c 0.238091,-0.44317 0.521109,-0.97649 0.628931,-1.18514 0.10782,-0.20866 0.251058,-0.44567 0.318305,-0.5267 0.108206,-0.13038 0.354845,-0.77165 1.178925,-3.06524 0.125111,-0.34821 0.255849,-0.7367 0.290529,-0.86333 0.03468,-0.12662 0.233205,-0.80001 0.441166,-1.49643 0.20796,-0.69642 0.470162,-1.62881 0.582672,-2.07199 0.112509,-0.44317 0.245267,-0.85982 0.295018,-0.92587 0.04975,-0.0661 0.125849,-0.48046 0.169107,-0.92089 0.04326,-0.44043 0.116425,-0.85257 0.162593,-0.91588 0.04617,-0.0633 0.116309,-0.34822 0.15587,-0.63311 0.06795,-0.48932 0.402846,-2.77216 0.66704,-4.54686 0.22234,-1.49357 0.256834,-7.04759 0.05712,-9.19777 -0.106482,-1.14645 -0.139546,-2.0194 -0.08048,-2.12494 0.07811,-0.13957 0.09972,-0.1166 0.09788,0.10405 -0.0013,0.15574 0.05946,0.69757 0.135027,1.20406 0.07698,0.51596 0.164318,2.85332 0.19863,5.31572 0.0574,4.11967 0.07405,4.39388 0.265884,4.37943 0.112555,-0.008 0.180906,-0.0773 0.151891,-0.1529 -0.08476,-0.22089 0.179121,-0.30635 0.366708,-0.11877 0.2177,0.2177 0.217452,0.30334 -9.13e-4,0.30334 -0.09497,0 -0.172666,0.0957 -0.172666,0.21261 0,0.27612 0.376969,0.70827 0.617832,0.70827 0.158186,0 0.187941,0.1458 0.187941,0.92089 0,0.53718 0.04796,0.92088 0.11511,0.92088 0.06331,0 0.11511,0.17094 0.11511,0.37986 0,0.42328 0.171577,0.65613 0.483464,0.65613 0.190879,0 0.207199,0.14485 0.207199,1.83892 v 1.83892 l 0.287776,-0.10942 c 0.18389,-0.0699 0.395148,-0.0686 0.585212,0.003 0.163589,0.0622 0.334412,0.0902 0.379604,0.0623 0.04519,-0.0279 0.141087,-0.0144 0.213097,0.0301 0.08227,0.0508 -0.0015,0.1569 -0.225369,0.2854 -0.320702,0.18405 -0.340171,0.18506 -0.194882,0.01 0.145117,-0.17486 0.135356,-0.18622 -0.09668,-0.11258 -0.157312,0.0499 -0.258058,0.034 -0.258058,-0.0409 0,-0.0676 -0.0777,-0.12286 -0.172665,-0.12286 -0.09497,0 -0.172666,0.0518 -0.172666,0.1151 0,0.0633 0.05362,0.11511 0.11916,0.11511 0.07656,0 0.06982,0.0926 -0.01885,0.259 -0.125799,0.23609 -0.120822,0.24482 0.05629,0.0987 0.10686,-0.0882 0.231891,-0.12255 0.277844,-0.0764 0.04595,0.0461 -0.03874,0.18301 -0.188199,0.30418 -0.308271,0.24992 -0.531163,0.29175 -0.407251,0.0764 0.04731,-0.0822 0.03852,-0.10341 -0.02052,-0.0494 -0.05683,0.052 -0.103981,0.1574 -0.104788,0.23432 -8.27e-4,0.0769 -0.446796,0.53627 -0.991085,1.02076 -2.274291,2.02441 -4.469742,4.57112 -6.047612,7.01518 -1.086649,1.68318 -1.152624,1.76803 -0.656255,0.84411 z m -17.67927,0.44108 c -0.005,-0.074 -0.0389,-0.22936 -0.0753,-0.34533 -0.063,-0.20043 -0.0597,-0.20068 0.0657,-0.005 0.0726,0.11318 0.10647,0.26858 0.0753,0.34533 -0.0409,0.10072 -0.0591,0.10214 -0.0657,0.005 z m 1.60599,-9.41969 c 0,-0.0633 0.0502,-0.1928 0.11158,-0.28777 0.0614,-0.095 0.11159,-0.12087 0.11159,-0.0576 0,0.0633 -0.0502,0.19281 -0.11159,0.28778 -0.0614,0.095 -0.11158,0.12086 -0.11158,0.0575 z m 57.21749,-4.43653 c -1.124359,-0.51013 -4.276311,-1.52822 -5.672071,-1.83211 -1.109476,-0.24156 -3.047898,-0.52355 -4.39956,-0.64003 -0.500975,-0.0432 -0.845018,-0.11801 -0.766259,-0.16669 0.07861,-0.0486 0.384147,-0.0704 0.678972,-0.0484 0.417404,0.0311 0.472348,0.0175 0.248264,-0.0614 -0.158275,-0.0558 -0.45307,-0.10655 -0.655091,-0.11286 -0.202022,-0.006 -0.399853,-0.0641 -0.439618,-0.12846 -0.03976,-0.0643 -0.123467,-0.0854 -0.186002,-0.0467 -0.143815,0.0889 -0.729031,-0.052 -0.629489,-0.15156 0.04063,-0.0406 0.317174,-0.0942 0.614583,-0.11917 0.297405,-0.0249 0.671733,-0.11433 0.831845,-0.19869 0.277579,-0.14624 0.25754,-0.15719 -0.431265,-0.23576 -0.639629,-0.073 -0.714438,-0.10741 -0.653077,-0.30073 0.03811,-0.12008 0.03402,-0.54759 -0.009,-0.95003 -0.07461,-0.6967 -0.09567,-0.73664 -0.440471,-0.8352 -0.361629,-0.10337 -0.362159,-0.1047 -0.395733,-0.99165 -0.03006,-0.79359 -0.05762,-0.88814 -0.259002,-0.88814 -0.186202,0 -0.22538,-0.08 -0.22538,-0.46044 0,-0.33254 -0.04796,-0.46044 -0.172663,-0.46044 -0.119286,0 -0.178754,-0.13346 -0.192355,-0.43167 -0.04581,-1.00441 -0.15992,-1.4101 -0.396625,-1.4101 -0.114478,0 -0.159237,-0.16279 -0.159237,-0.57917 0,-0.44604 -0.0463,-0.59653 -0.201443,-0.65475 -0.239071,-0.0897 -0.480431,-0.37755 -0.48556,-0.57907 -0.0063,-0.24565 0.441175,-0.15792 0.587143,0.11511 0.07615,0.14245 0.375825,0.4921 0.665933,0.77699 0.290113,0.28491 0.724624,0.76336 0.965583,1.06324 0.661879,0.82372 3.561325,3.69364 4.9204,4.8703 1.110467,0.96141 2.692308,2.21132 3.492393,2.75953 0.183,0.1254 0.474036,0.33159 0.646743,0.45821 0.172706,0.12662 0.69637,0.48102 1.163701,0.78755 0.467332,0.30653 1.151333,0.75977 1.52001,1.00721 0.368676,0.24744 0.715265,0.44989 0.7702,0.44989 0.05494,0 0.131898,0.0518 0.171028,0.11512 0.09307,0.15059 0.08532,0.14876 -0.506835,-0.1199 z m -10.831538,-8.28317 c 0,-0.0633 -0.0518,-0.1151 -0.115109,-0.1151 -0.06331,0 -0.115113,0.0518 -0.115113,0.1151 0,0.0633 0.0518,0.11512 0.115113,0.11512 0.06331,0 0.115109,-0.0518 0.115109,-0.11512 z m -1.956878,-1.25942 c 0,-0.0596 -0.0518,-0.14032 -0.115109,-0.17945 -0.06331,-0.0391 -0.115109,0.01 -0.115109,0.10831 0,0.0987 0.0518,0.17946 0.115109,0.17946 0.06331,0 0.115109,-0.0487 0.115109,-0.10832 z m 0.522732,-0.47489 c 0.09741,-0.1576 0.06365,-0.18657 -0.333697,-0.28629 -0.326075,-0.0818 -0.326941,-0.0806 -0.118067,0.16331 0.23529,0.2748 0.340271,0.30338 0.451764,0.12298 z m -0.75295,-0.92281 c 0,-0.28053 -0.268986,-0.24088 -0.324996,0.0479 -0.02201,0.11358 0.03668,0.1919 0.143888,0.1919 0.106782,0 0.181108,-0.0984 0.181108,-0.23981 z m -1.787825,-2.00484 c -0.02967,-0.095 -0.07822,-0.25037 -0.107883,-0.34533 -0.02967,-0.095 -0.01414,-0.17267 0.03454,-0.17267 0.159512,0 0.36474,0.27203 0.36474,0.48346 0,0.25059 -0.215896,0.27618 -0.291388,0.0345 z m -0.578077,-0.82836 c -0.126085,-0.12608 -0.150593,-0.21295 -0.06786,-0.24052 0.168961,-0.0563 0.511168,0.28589 0.37194,0.37193 -0.0587,0.0363 -0.195526,-0.0228 -0.30408,-0.13141 z m -1.317631,-2.34397 c 0,-0.067 0.0518,-0.0899 0.115109,-0.0508 0.06331,0.0391 0.115113,0.094 0.115113,0.1219 0,0.0279 -0.0518,0.0508 -0.115113,0.0508 -0.06331,0 -0.115109,-0.0549 -0.115109,-0.1219 z m -51.353913,-19.76342 c -0.14318,-0.18257 -0.13911,-0.18664 0.0435,-0.0435 0.19175,0.15038 0.25273,0.24491 0.15799,0.24491 -0.0239,0 -0.11456,-0.0907 -0.20145,-0.20145 z m -1.76289,-1.16914 c -0.0355,-0.0574 0.0392,-0.0773 0.16587,-0.0441 0.26878,0.0703 0.30276,0.1485 0.0645,0.1485 -0.0912,0 -0.1949,-0.047 -0.23038,-0.10437 z"
         id="path1002"
         inkscape:connector-curvature="0" />
    </g>
  </g>
</svg>
